# xmcd
# Copyright (C) 1995-1998 Ti Kan
#
# Track frame offsets:
#       150
#       21712
#       39337
#       58660
#       80587
#       102225
#
# Disc length: 2015 seconds
#
# Revision: 0
# Processed by: cddbd v1.4PL0 Copyright (c) Steve Scherf et al.
# Submitted via: CD-Transfer v1.0
#
DISCID=4a07dd06
DTITLE=Strike - Unrestricted Emotions
DYEAR=2002
DGENRE=
TTITLE0=I'll Never Break Your Heart
TTITLE1=(Why Don't You) Leave Me Alone
TTITLE2=Open Door
TTITLE3=Between You
TTITLE4=Better Ground
TTITLE5=What Is Freedom (Acapella Version)
EXTD=
EXTT0=
EXTT1=
EXTT2=
EXTT3=
EXTT4=
EXTT5=
PLAYORDER=
